<svg width="156" height="52" viewBox="0 0 156 52" fill="none" xmlns="http://www.w3.org/2000/svg">
<path d="M26.1676 3.05347C26.1676 3.05347 22.0312 5.94759 19.6445 9.72409C20.8379 10.6877 21.872 11.7326 22.5088 12.9383C24.1798 16.2338 22.9865 19.0467 21.872 20.7351C22.9849 20.3337 24.0994 19.5293 25.0531 18.244C28.4738 13.5022 26.166 3.05347 26.166 3.05347H26.1676Z" fill="#00703C"/>
<path d="M19.963 22.7451C19.963 22.7451 24.4966 18.6468 21.8719 13.5021C19.1669 8.35895 8.90625 5.70532 8.90625 5.70532C8.90625 5.70532 9.85994 12.8586 13.4399 16.5554C14.9517 18.1626 17.3383 19.6901 17.8947 20.2523C18.4512 20.8146 18.054 18.9669 17.0199 16.4742C16.3042 14.7062 15.1897 13.0178 15.1897 13.0178C15.1897 13.0178 19.2457 16.1524 19.7233 20.8942C19.8825 22.3404 19.9613 22.7435 19.9613 22.7435L19.963 22.7451Z" fill="#00A160"/>
<path d="M23.7041 20.1726C29.1931 21.458 33.1703 25.9592 33.1703 31.3445C33.1703 37.6934 27.4433 42.8381 20.4442 42.8381C13.4451 42.8381 7.71815 37.695 7.71815 31.3445C7.71815 26.0405 11.7742 21.5392 17.1843 20.1726C10.1852 21.458 4.85547 26.9245 4.85547 33.5139C4.85547 41.0685 11.8546 47.0972 20.4458 47.0972C29.0371 47.0972 36.0362 40.9889 36.0362 33.5139C36.0362 26.9229 30.7869 21.458 23.7073 20.1726H23.7041Z" fill="#E5115B"/>
<path d="M55.2809 24.3523C55.2809 24.2727 55.3597 24.1118 55.5993 24.1118C56.2361 24.1118 58.7804 26.1203 58.7804 27.5682C58.7804 29.0161 55.8373 33.9171 53.5311 37.0517C51.3841 39.9458 47.8829 43.5614 46.9292 43.5614C46.6108 43.5614 46.3728 43.3209 46.0543 42.4369C45.4979 41.1516 44.7018 38.9806 44.2241 37.6139C43.7465 36.4082 40.485 28.0492 39.6101 27.0043C39.2128 26.6029 38.9732 26.4421 38.6564 26.3608C38.1787 26.1999 38.0195 26.1203 38.0195 25.8782C38.0195 25.4768 38.7352 25.4768 39.0536 25.4768C39.4509 25.4768 42.5532 25.6377 43.19 26.3608C43.5085 26.7622 43.7465 27.4853 43.9861 28.0492C45.3387 31.7461 46.9292 36.0864 48.2818 39.1398C48.441 39.5412 48.9186 40.5064 49.2354 40.5064C50.1891 40.5064 55.8373 32.1474 55.8373 26.6826C55.8373 26.1999 55.8373 25.7986 55.4401 24.7537L55.2809 24.3523Z" fill="#00A160"/>
<path d="M64.3495 30.2997C64.3495 30.6214 64.1903 30.701 64.0311 30.701C63.8718 30.701 62.5193 30.3793 61.9629 30.1388C61.5656 29.9779 61.5656 29.6562 61.5656 29.4157V28.1303C61.5656 27.8898 61.4868 27.0854 61.4868 26.9245C61.4868 26.684 61.4868 26.6028 61.7248 26.6028C61.8841 26.6028 64.0311 27.0042 64.2707 27.4868C64.2707 27.5664 64.2707 28.4504 64.2707 28.8534L64.3495 30.2997ZM64.2707 42.7569C64.2707 43.0787 64.1115 43.1583 63.793 43.1583C63.3154 43.1583 61.9629 42.8365 61.646 42.5148C61.408 42.3539 61.408 42.193 61.408 41.8713C61.408 41.1482 61.4868 38.0135 61.4868 37.37C61.4868 36.4064 61.4868 34.4759 61.0896 33.7528C60.9304 33.5123 60.8516 33.3514 60.8516 33.1093C60.8516 33.0297 60.8516 32.8688 61.3292 32.8688C62.1253 32.8688 63.079 33.1905 63.7947 33.431C64.4315 33.6715 64.5907 33.8324 64.5907 34.3947C64.5907 34.5555 64.4315 37.3684 64.3527 37.6902C64.2739 39.2973 64.2739 39.9408 64.2739 40.9857V42.7537L64.2707 42.7569Z" fill="#00A160"/>
<path d="M69.9179 37.0516C69.1218 35.1227 68.6458 34.3183 68.0877 33.9982C67.61 33.6764 67.5312 33.6764 67.5312 33.4359C67.5312 33.1142 67.9285 33.0346 68.1681 33.0346C68.1681 33.0346 71.3492 33.1142 71.9073 33.9186C72.3045 34.4808 74.3727 41.3123 75.0884 41.3123C75.8845 41.3123 79.4628 37.1328 79.4628 32.7924C79.4628 31.7476 79.4628 31.7476 79.7009 31.7476C80.0193 31.7476 80.6546 32.3911 81.1322 32.9533C81.2914 33.1142 81.9283 33.9169 81.8479 34.5604C81.6887 35.8458 79.3824 38.7399 77.7919 40.2674C75.8829 42.1167 73.6555 43.4817 72.9398 43.4817C72.7018 43.4817 72.5425 43.4817 71.8269 41.7933L69.9179 37.0516Z" fill="#00A160"/>
<path d="M93.7812 35.2025C93.384 34.7199 92.0315 34.2389 90.8381 34.2389C87.8162 34.2389 86.3833 36.8909 86.3833 39.0619C86.3833 39.3024 86.3833 40.1864 86.9398 40.7502C87.4962 41.3937 88.4515 41.6342 89.1672 41.6342C90.9974 41.6342 92.3483 40.7502 92.7471 40.5097C94.3377 39.4649 94.3377 38.9026 94.3377 38.5809C94.3377 38.3404 94.2589 37.7765 94.2589 37.536C94.0997 36.2506 94.0209 35.4462 93.7812 35.2057V35.2025ZM96.8047 33.7562C97.0428 33.7562 97.0428 33.9171 97.0428 34.1576C97.0428 34.3981 97.1216 36.9705 97.5992 39.6225C97.9176 41.3905 98.0769 41.5514 98.5529 41.5514C98.7909 41.5514 98.9501 41.631 98.9501 41.8731C98.9501 42.2745 96.6439 43.5615 95.769 43.5615C95.3718 43.5615 95.2126 43.4819 94.6561 40.266C92.5091 42.034 90.0421 43.1601 87.3386 43.1601C83.5206 43.1601 83.043 41.1516 83.043 40.1864C83.043 36.8909 88.2135 32.9535 91.5538 32.9535C93.2248 32.9535 94.0997 33.9984 94.4969 34.5606C94.7349 34.3997 96.5651 33.7562 96.8031 33.7562H96.8047Z" fill="#00A160"/>
<path d="M111.596 33.1125C112.949 33.1125 113.108 33.756 113.743 37.2108C113.902 38.0948 114.38 40.9077 114.777 41.3903C115.015 41.6308 115.174 41.6308 115.493 41.7121C115.652 41.7121 115.731 41.8729 115.731 41.9526C115.731 42.5148 112.867 43.5597 112.629 43.5597C111.992 43.5597 111.992 43.3192 111.356 40.2642C110.879 37.9339 110.641 36.8891 110.401 36.2455C110.242 35.8442 110.083 35.5224 109.526 35.5224C108.571 35.5224 105.787 38.5758 104.595 42.2743C104.357 42.9974 104.277 43.1583 103.959 43.1583C103.799 43.1583 103.003 43.0787 102.368 42.8366C102.05 42.6757 101.89 42.5961 101.89 42.1931C101.89 42.1931 101.969 40.6656 101.969 40.2642C102.048 39.2193 102.048 37.9339 102.048 36.7282C102.048 35.4428 101.969 34.7197 101.889 34.3979C101.889 34.237 101.57 33.6748 101.57 33.5139C101.57 33.1922 101.808 33.1922 101.968 33.1922C102.206 33.1922 103.639 33.353 104.513 33.7544C104.991 33.9949 105.07 34.3167 105.07 34.7993C105.07 35.6833 104.592 39.3005 104.513 40.0237C106.82 35.121 109.922 33.1125 111.593 33.1125H111.596Z" fill="#00A160"/>
<path d="M129.734 35.6849C128.621 34.4791 126.631 34.1574 125.438 34.1574C121.382 34.1574 121.064 38.2556 121.064 38.7383C121.064 41.4715 123.291 41.5511 123.928 41.5511C125.837 41.5511 128.621 40.4266 129.735 39.5426C129.735 38.0964 129.735 37.7746 129.735 35.6849H129.734ZM132.596 29.7374C132.437 31.4258 132.358 33.9965 132.358 36.9703C132.358 37.3716 132.437 42.5164 132.518 43.5613C132.518 43.8018 132.518 43.9626 132.518 43.9626C132.518 44.2031 132.439 44.2844 132.12 44.2844C131.723 44.2844 130.689 43.9626 129.973 43.48C129.576 43.1583 129.576 42.9178 129.576 42.596C129.576 42.1946 129.576 41.5511 129.655 40.6671C128.143 41.3903 124.803 43.0786 121.463 43.0786C118.281 43.0786 117.645 41.2294 117.645 40.1049C117.645 36.7298 122.337 32.7111 125.996 32.7111C127.905 32.7111 128.939 33.5951 129.735 34.3995C129.735 31.1853 129.735 27.6476 129.417 24.7551C129.417 24.3538 129.338 24.1116 129.258 23.8711C129.258 23.8711 129.098 23.4698 129.098 23.3885C129.098 23.2276 129.336 23.0668 129.576 23.0668C130.372 23.0668 131.406 23.5494 131.882 23.7899C132.439 24.1116 132.838 24.3521 132.838 24.9144L132.6 29.7374H132.596Z" fill="#00A160"/>
<path d="M146.833 35.2025C146.436 34.7199 145.084 34.2389 143.89 34.2389C140.868 34.2389 139.435 36.8909 139.435 39.0619C139.435 39.3024 139.435 40.1864 139.992 40.7502C140.548 41.3937 141.504 41.6342 142.219 41.6342C144.05 41.6342 145.4 40.7502 145.799 40.5097C147.39 39.4649 147.39 38.9026 147.39 38.5809C147.39 38.3404 147.311 37.7765 147.311 37.536C147.073 36.2506 146.993 35.4462 146.833 35.2057V35.2025ZM149.776 33.7562C150.014 33.7562 150.014 33.9171 150.014 34.1576C150.014 34.3981 150.093 36.9705 150.571 39.6225C150.889 41.3905 151.049 41.5514 151.526 41.5514C151.764 41.5514 151.923 41.631 151.923 41.8731C151.923 42.2745 149.617 43.5615 148.742 43.5615C148.345 43.5615 148.186 43.4819 147.629 40.266C145.482 42.034 143.015 43.1601 140.312 43.1601C136.494 43.1601 135.938 41.1516 135.938 40.1864C135.938 36.8909 141.108 32.9535 144.448 32.9535C146.119 32.9535 146.994 33.9984 147.391 34.5606C147.71 34.3997 149.619 33.7562 149.778 33.7562H149.776Z" fill="#00A160"/>
</svg>
