<svg xmlns="http://www.w3.org/2000/svg" xmlns:xlink="http://www.w3.org/1999/xlink" width="188" height="34" viewBox="0 0 188 34">
    <defs>
        <path id="a" d="M.158.347H9.62v9.275H.158z"/>
    </defs>
    <g fill="none" fill-rule="evenodd">
        <path fill="#CAD807" d="M1.89 6.29c0-2.277 1.89-4.116 4.21-4.116 2.322 0 4.21 1.84 4.21 4.115 0 2.28-1.888 4.123-4.21 4.123-2.32 0-4.21-1.846-4.21-4.123M23.77 6.29c0-2.277 1.887-4.123 4.208-4.123s4.206 1.846 4.206 4.122c0 2.28-1.885 4.123-4.206 4.123-2.321 0-4.208-1.843-4.208-4.123M23.77 27.723c0-2.274 1.887-4.116 4.208-4.116s4.206 1.842 4.206 4.116c0 2.284-1.885 4.13-4.206 4.13-2.321 0-4.208-1.846-4.208-4.13M1.89 27.723c0-2.274 1.89-4.116 4.21-4.116 2.322 0 4.204 1.842 4.204 4.116 0 2.284-1.882 4.13-4.204 4.13-2.32 0-4.21-1.846-4.21-4.13"/>
        <path fill="#4DA80A" d="M12.308 4.954c0-2.566 2.12-4.641 4.73-4.641 2.616 0 4.732 2.075 4.732 4.64 0 2.555-2.116 4.634-4.732 4.634-2.61 0-4.73-2.079-4.73-4.633"/>
        <g transform="translate(12.15 24.082)">
            <mask id="b" fill="#fff">
                <use xlink:href="#a"/>
            </mask>
            <path fill="#4DA80A" d="M.158 4.982c0-2.56 2.119-4.635 4.73-4.635 2.616 0 4.732 2.075 4.732 4.635 0 2.565-2.116 4.64-4.732 4.64-2.611 0-4.73-2.075-4.73-4.64" mask="url(#b)"/>
        </g>
        <path fill="#4DA80A" d="M24.614 17.012c0-2.565 2.124-4.639 4.738-4.639 2.612 0 4.733 2.072 4.733 4.64 0 2.56-2.12 4.637-4.733 4.637-2.614 0-4.738-2.077-4.738-4.638M0 17.012c0-2.565 2.115-4.639 4.731-4.639 2.613 0 4.738 2.074 4.738 4.64 0 2.56-2.125 4.637-4.738 4.637-2.616 0-4.73-2.077-4.73-4.638"/>
        <path fill="#1D5632" d="M11.78 17.012c0-2.846 2.352-5.158 5.258-5.158s5.264 2.312 5.264 5.158c0 2.84-2.358 5.148-5.264 5.148s-5.258-2.308-5.258-5.148"/>
        <path fill="#4DA80A" d="M65.474 6.1H44.21v6.177H50.9v18.86h7.896v-18.86h6.679zM92.172 12.278h6.68v18.858h7.901V12.278h6.682V6.1H92.172zM115.343 12.278h6.69v18.858h7.896V12.278h6.682V6.1h-21.268zM155.018 21.382c0 1.391-.382 2.461-1.168 3.228-.764.756-1.827 1.123-3.185 1.123-1.366 0-2.443-.378-3.228-1.14-.76-.766-1.145-1.844-1.145-3.211V6.1h-7.88v14.923c0 1.23.24 2.642.736 4.241.303.986.852 1.946 1.663 2.888.825.934 1.735 1.646 2.721 2.164.993.501 2.222.84 3.68 1.007 1.483.167 2.84.254 4.079.254 2.15 0 3.993-.276 5.525-.833 1.109-.407 2.16-1.087 3.167-2.069a8.975 8.975 0 0 0 2.205-3.447c.474-1.321.72-2.72.72-4.205V6.1h-7.89v15.282zM186.947 19.289c-.688-1.11-1.77-2.04-3.255-2.775-1.5-.747-3.97-1.489-7.42-2.22-1.399-.285-2.274-.588-2.644-.922-.386-.316-.577-.672-.577-1.08 0-.538.23-1.001.698-1.385.46-.381 1.161-.572 2.065-.572 1.12 0 1.988.256 2.616.766.641.51 1.063 1.331 1.26 2.462l7.448-.424c-.33-2.605-1.354-4.486-3.078-5.676-1.706-1.198-4.192-1.79-7.461-1.79-2.665.003-4.756.33-6.293.988-1.526.652-2.669 1.55-3.43 2.697-.752 1.144-1.128 2.348-1.128 3.645 0 1.955.74 3.565 2.225 4.826 1.474 1.27 3.948 2.276 7.407 3.046 2.11.45 3.473.936 4.051 1.452.575.51.865 1.088.865 1.73 0 .7-.312 1.298-.92 1.81-.602.518-1.466.776-2.607.776-1.507 0-2.668-.51-3.477-1.513-.498-.635-.826-1.535-1.004-2.734l-7.499.451c.218 2.53 1.158 4.617 2.836 6.261 1.681 1.636 4.686 2.455 9.024 2.455 2.478 0 4.53-.35 6.155-1.048 1.63-.697 2.89-1.723 3.809-3.087.902-1.352 1.356-2.835 1.356-4.433 0-1.37-.343-2.604-1.022-3.706M78.787 5.74c-7.412 0-13.435 5.891-13.435 13.165 0 7.258 6.023 13.156 13.435 13.156 7.42 0 13.44-5.898 13.44-13.156 0-7.274-6.02-13.166-13.44-13.166m0 19.743c-3.706 0-6.707-2.95-6.707-6.577 0-3.638 3-6.587 6.707-6.587 3.712 0 6.714 2.949 6.714 6.587 0 3.627-3.002 6.577-6.714 6.577"/>
    </g>
</svg>
